<svg width="32" height="32" version="1.1" xmlns="http://www.w3.org/2000/svg" desc="Created with imagetracer.js version 1.2.6" ><path fill="rgb(143,116,220)" stroke="rgb(143,116,220)" stroke-width="1" opacity="0.9725490196078431" d="M 19.5 1 L 20 9.5 L 22 11.5 L 22 13.5 L 21.5 15 L 20.5 13 L 19.5 16 L 19.5 1 Z " /><path fill="rgb(143,116,220)" stroke="rgb(143,116,220)" stroke-width="1" opacity="0.9725490196078431" d="M 22.5 3 L 29 7.5 L 27.5 8 L 22.5 3 Z " /><path fill="rgb(143,116,220)" stroke="rgb(143,116,220)" stroke-width="1" opacity="0.9725490196078431" d="M 5.5 11 L 4.5 13 L 5.5 11 Z " /><path fill="rgb(143,116,220)" stroke="rgb(143,116,220)" stroke-width="1" opacity="0.9725490196078431" d="M 11.5 17 L 12.5 19 L 10 18.5 L 11.5 17 Z " /><path fill="rgb(143,116,220)" stroke="rgb(143,116,220)" stroke-width="1" opacity="0.9725490196078431" d="M 10.5 21 L 11 22.5 L 9 23.5 L 10.5 21 Z " /><path fill="rgb(166,121,217)" stroke="rgb(166,121,217)" stroke-width="1" opacity="0.9764705882352941" d="M 27.5 9 L 27.5 12 Q 24.5 10.5 27.5 9 Z " /><path fill="rgb(166,121,217)" stroke="rgb(166,121,217)" stroke-width="1" opacity="0.9764705882352941" d="M 20.5 11 Q 23.3 12.3 21 13.5 L 22 22 Q 18.3 23.4 20 17.5 L 20 15.5 L 21 12.5 L 20.5 11 Z " /><path fill="rgb(166,121,217)" stroke="rgb(166,121,217)" stroke-width="1" opacity="0.9764705882352941" d="M 28.5 24 L 27.5 26 L 28.5 24 Z " /><path fill="rgb(166,121,217)" stroke="rgb(166,121,217)" stroke-width="1" opacity="0.9764705882352941" d="M 14.5 25 Q 17.1 24.3 16 27 L 13 26.5 L 14.5 25 Z " /><path fill="rgb(166,121,217)" stroke="rgb(166,121,217)" stroke-width="1" opacity="0.9764705882352941" d="M 6.5 26 L 11 29.5 L 9.5 30 L 6.5 26 Z " /><path fill="rgb(166,121,217)" stroke="rgb(166,121,217)" stroke-width="1" opacity="0.9764705882352941" d="M 15.5 31 L 18 31.5 L 15.5 32 L 15.5 31 Z " /><path fill="rgb(0,0,0)" stroke="rgb(0,0,0)" stroke-width="1" opacity="0" d="M 0 0 L 19 0.5 L 18 4 L 12.5 4 L 4 10.5 Q 0.2 13.7 2 22.5 L 9.5 31 L 11 31.5 L 0 32 L 0 0 Z " /><path fill="rgb(0,0,0)" stroke="rgb(0,0,0)" stroke-width="1" opacity="0" d="M 22.5 0 L 31.5 0 L 32 0.5 L 32 32 L 22 31.5 L 31 23.5 Q 33 14 29 10.5 L 30 7.5 L 22.5 0 Z " /><path fill="rgb(224,209,250)" stroke="rgb(224,209,250)" stroke-width="1" opacity="1" d="M 10.5 8 L 12 8.5 L 8 11.5 L 9.5 12 L 12 10.5 L 5 15 Q 4 12 7 13 L 7 10.5 L 10.5 8 Z " /><path fill="rgb(224,209,250)" stroke="rgb(224,209,250)" stroke-width="1" opacity="1" d="M 16.5 9 L 18 15 Q 11.3 13.9 9 18.5 L 8 21.5 L 9 24 Q 3.4 26.2 5 20.5 L 6 20.5 L 6.5 22 L 7 19.5 L 12.5 14 L 16 12.5 L 16.5 9 Z " /><path fill="rgb(224,209,250)" stroke="rgb(224,209,250)" stroke-width="1" opacity="1" d="M 23.5 12 L 26.5 13 L 28 12.5 L 25.5 17 L 23 15.5 L 23.5 12 Z " /><path fill="rgb(224,209,250)" stroke="rgb(224,209,250)" stroke-width="1" opacity="1" d="M 22.5 17 L 23 20.5 L 22 20.5 L 22.5 17 Z " /><path fill="rgb(224,209,250)" stroke="rgb(224,209,250)" stroke-width="1" opacity="1" d="M 29.5 17 L 30 19.5 L 29 19.5 L 29.5 17 Z " /><path fill="rgb(224,209,250)" stroke="rgb(224,209,250)" stroke-width="1" opacity="1" d="M 18.5 22 L 17.5 24 L 18.5 22 Z " /><path fill="rgb(204,200,249)" stroke="rgb(204,200,249)" stroke-width="1" opacity="0.996078431372549" d="M 16.5 5 L 18 5.5 L 18 12.5 L 17 12.5 L 16.5 9 L 14.5 14 L 11 15.5 Q 13.7 17.3 9.5 19 Q 8.3 16.8 7 19.5 L 6.5 22 L 5.5 20 L 4 20.5 L 5 18.5 L 4 15 L 8 15 Q 6.9 12.3 9.5 13 Q 12.8 11.8 12 8 L 8.5 9 L 8.5 8 L 16.5 5 Z " /><path fill="rgb(204,200,249)" stroke="rgb(204,200,249)" stroke-width="1" opacity="0.996078431372549" d="M 6.5 11 L 7 13 L 5 12.5 L 6.5 11 Z " /><path fill="rgb(204,200,249)" stroke="rgb(204,200,249)" stroke-width="1" opacity="0.996078431372549" d="M 22.5 12 L 23 16.5 L 22 16.5 L 22.5 12 Z " /><path fill="rgb(139,97,203)" stroke="rgb(139,97,203)" stroke-width="1" opacity="0.9725490196078431" d="M 22.5 2 L 25.5 6 L 22.5 2 Z " /><path fill="rgb(139,97,203)" stroke="rgb(139,97,203)" stroke-width="1" opacity="0.9725490196078431" d="M 18.5 5 L 19 17 Q 13.3 16 11 19.5 L 10 22.5 L 14 25.5 L 11.5 26 L 9 20.5 Q 10.7 14.7 18 16 L 18.5 5 Z " /><path fill="rgb(139,97,203)" stroke="rgb(139,97,203)" stroke-width="1" opacity="0.9725490196078431" d="M 28.5 8 L 29 9.5 L 25.5 12 L 25.5 11 L 28 9.5 L 28.5 8 Z " /><path fill="rgb(139,97,203)" stroke="rgb(139,97,203)" stroke-width="1" opacity="0.9725490196078431" d="M 6.5 9 L 5.5 11 L 6.5 9 Z " /><path fill="rgb(139,97,203)" stroke="rgb(139,97,203)" stroke-width="1" opacity="0.9725490196078431" d="M 21 9 L 24 10.5 L 21 11 L 21 9 Z " /><path fill="rgb(139,97,203)" stroke="rgb(139,97,203)" stroke-width="1" opacity="0.9725490196078431" d="M 20.5 22 L 20 23.5 Q 20.8 25.8 18.5 25 L 16.5 26 L 16.5 25 L 20.5 22 Z " /><path fill="rgb(171,151,241)" stroke="rgb(171,151,241)" stroke-width="1" opacity="0.996078431372549" d="M 20.5 1 L 25.5 7 L 28 8.5 L 25 9.5 L 25.5 11 L 20 9 L 20.5 1 Z " /><path fill="rgb(171,151,241)" stroke="rgb(171,151,241)" stroke-width="1" opacity="0.996078431372549" d="M 7.5 9 L 6.5 11 L 7.5 9 Z " /><path fill="rgb(171,151,241)" stroke="rgb(171,151,241)" stroke-width="1" opacity="0.996078431372549" d="M 3.5 16 L 4 19.5 L 3 19.5 L 3.5 16 Z " /><path fill="rgb(171,151,241)" stroke="rgb(171,151,241)" stroke-width="1" opacity="0.996078431372549" d="M 13.5 18 L 18 18.5 Q 15.9 22.1 11 22 L 13.5 18 Z " /><path fill="rgb(201,151,233)" stroke="rgb(201,151,233)" stroke-width="1" opacity="0.996078431372549" d="M 26.5 8 L 27 10 L 25 9.5 L 26.5 8 Z " /><path fill="rgb(201,151,233)" stroke="rgb(201,151,233)" stroke-width="1" opacity="0.996078431372549" d="M 19.5 17 L 20 22.5 Q 18.3 26.5 12 25 L 11 22.5 Q 17 21.5 19.5 17 Z " /><path fill="rgb(201,151,233)" stroke="rgb(201,151,233)" stroke-width="1" opacity="0.996078431372549" d="M 9.5 24 L 10.5 26 L 9.5 24 Z " /><path fill="rgb(201,151,233)" stroke="rgb(201,151,233)" stroke-width="1" opacity="0.996078431372549" d="M 26.5 26 L 24.5 29 L 26.5 26 Z " /><path fill="rgb(246,209,241)" stroke="rgb(246,209,241)" stroke-width="1" opacity="1" d="M 27.5 13 Q 30.3 15.7 29 22.5 L 23.5 29 L 19.5 30 L 15.5 30 L 8 28 L 6 24.5 L 8.5 24 L 12.5 27 L 17.5 28 Q 22.9 24.4 23.5 16 L 25.5 17 L 27.5 13 Z " /><path fill="rgb(254,232,241)" stroke="rgb(254,232,241)" stroke-width="1" opacity="0.9254901960784314" d="M 10.5 9 L 11 10.5 L 8.5 12 L 10.5 9 Z " /><path fill="rgb(254,232,241)" stroke="rgb(254,232,241)" stroke-width="1" opacity="0.9254901960784314" d="M 26.5 24 L 23.5 28 L 20.5 29 L 20.5 28 L 26.5 24 Z " /><path fill="rgb(254,232,241)" stroke="rgb(254,232,241)" stroke-width="1" opacity="0.9254901960784314" d="M 20.5 25 L 19.5 27 L 20.5 25 Z " /><path fill="rgb(161,127,208)" stroke="rgb(161,127,208)" stroke-width="1" opacity="0.34901960784313724" d="M 19.5 0 Q 23.5 -0.5 24 2.5 L 21.5 1 Q 17.3 -0.3 19 4.5 L 18 4.5 Q 17.3 0.8 19.5 0 Z " /><path fill="rgb(161,127,208)" stroke="rgb(161,127,208)" stroke-width="1" opacity="0.34901960784313724" d="M 13.5 4 L 16 4.5 L 13.5 5 L 13.5 4 Z " /><path fill="rgb(161,127,208)" stroke="rgb(161,127,208)" stroke-width="1" opacity="0.34901960784313724" d="M 10.5 5 L 12 5.5 L 5.5 10 L 8.5 6 L 10.5 5 Z " /><path fill="rgb(161,127,208)" stroke="rgb(161,127,208)" stroke-width="1" opacity="0.34901960784313724" d="M 29.5 7 L 30 9.5 L 29 9.5 L 29.5 7 Z " /><path fill="rgb(161,127,208)" stroke="rgb(161,127,208)" stroke-width="1" opacity="0.34901960784313724" d="M 4.5 11 L 3.5 13 L 4.5 11 Z " /><path fill="rgb(161,127,208)" stroke="rgb(161,127,208)" stroke-width="1" opacity="0.34901960784313724" d="M 29.5 12 Q 32 13 31 17.5 L 30 17.5 L 29.5 12 Z " /><path fill="rgb(161,127,208)" stroke="rgb(161,127,208)" stroke-width="1" opacity="0.34901960784313724" d="M 2.5 14 L 3 16.5 L 2 16.5 L 2.5 14 Z " /><path fill="rgb(161,127,208)" stroke="rgb(161,127,208)" stroke-width="1" opacity="0.34901960784313724" d="M 2.5 19 L 3 21.5 L 2 21.5 L 2.5 19 Z " /><path fill="rgb(161,127,208)" stroke="rgb(161,127,208)" stroke-width="1" opacity="0.34901960784313724" d="M 30.5 19 L 31 22.5 L 29 23.5 L 30.5 19 Z " /><path fill="rgb(161,127,208)" stroke="rgb(161,127,208)" stroke-width="1" opacity="0.34901960784313724" d="M 3.5 23 L 9 29.5 L 4 25.5 L 3.5 23 Z " /><path fill="rgb(161,127,208)" stroke="rgb(161,127,208)" stroke-width="1" opacity="0.34901960784313724" d="M 28.5 25 L 24.5 30 L 28.5 25 Z " /><path fill="rgb(161,127,208)" stroke="rgb(161,127,208)" stroke-width="1" opacity="0.34901960784313724" d="M 10.5 30 L 13 31.5 L 11.5 32 L 10.5 30 Z " /><path fill="rgb(161,127,208)" stroke="rgb(161,127,208)" stroke-width="1" opacity="0.34901960784313724" d="M 22.5 30 L 21.5 32 L 22.5 30 Z " /><path fill="rgb(209,187,229)" stroke="rgb(209,187,229)" stroke-width="1" opacity="0.29411764705882354" d="M 24.5 3 L 25.5 5 L 24.5 3 Z " /><path fill="rgb(209,187,229)" stroke="rgb(209,187,229)" stroke-width="1" opacity="0.29411764705882354" d="M 30.5 23 L 29.5 25 L 30.5 23 Z " /></svg>